<svg viewBox="0 0 500 500" fill="none" xmlns="http://www.w3.org/2000/svg">
  <!-- Bag Handle -->
  <path d="M205 135 C205 70, 295 70, 295 135" stroke="#1E75FF" stroke-width="20" stroke-linecap="round" fill="none"/>
  <circle cx="205" cy="140" r="10" fill="#1E75FF"/>
  <circle cx="295" cy="140" r="10" fill="#1E75FF"/>
  <!-- Left Orange Fold -->
  <path d="M150 95 L45 385 L85 415 L145 155 Z" fill="#FF6A00"/>
  <!-- Blue Bag Outer Frame -->
  <path d="M160 100 L130 425 L375 405 L150 435 L335 125 Z" fill="#1E75FF"/>
  <!-- Letter B in Blue -->
  <path d="M160 170 H275 C320 170, 345 195, 345 235 C345 260, 330 280, 305 290 C335 300, 350 325, 350 360 C350 405, 315 430, 265 430 H140 L160 170 Z M215 220 L205 275 H260 C275 275, 285 265, 285 250 C285 235, 275 220, 260 220 H215 Z M200 320 L190 380 H265 C280 380, 290 370, 290 350 C290 330, 280 320, 265 320 H200 Z" fill="#1E75FF"/>
  <!-- Speed Bars forming E in Orange -->
  <path d="M315 170 H470 L460 220 H335 Z" fill="#FF6A00"/>
  <path d="M330 245 H450 L440 295 H325 Z" fill="#FF6A00"/>
  <path d="M310 325 H440 L430 375 H300 Z" fill="#FF6A00"/>
  <path d="M290 400 H430 L420 445 H280 Z" fill="#FF6A00"/>
</svg>
